<svg 
 xmlns="http://www.w3.org/2000/svg"
 xmlns:xlink="http://www.w3.org/1999/xlink"
 width="134px" height="106px">
<path fill-rule="evenodd"  fill="rgb(16, 16, 18)"
 d="M133.117,76.236 L112.637,76.236 L112.637,76.338 C112.589,78.281 111.461,80.234 109.803,81.248 L69.382,104.585 C68.529,105.072 67.535,105.272 66.546,105.275 C65.557,105.272 64.562,105.072 63.712,104.585 L23.291,81.248 C21.633,80.234 20.506,78.281 20.456,76.338 L20.456,67.892 L12.389,67.892 L12.389,56.425 L0.919,56.425 L7.874,43.571 L0.883,31.228 L20.456,31.228 L20.456,29.663 L20.457,29.663 C20.506,27.721 21.633,25.767 23.291,24.754 L63.712,1.417 C64.565,0.929 65.558,0.729 66.547,0.724 C67.535,0.729 68.528,0.929 69.382,1.416 L109.803,24.754 C111.461,25.767 112.589,27.721 112.639,29.663 L112.639,38.818 L120.705,38.818 L120.705,51.037 L133.080,51.037 L126.125,63.892 L133.117,76.236 ZM22.583,76.338 C22.534,77.319 23.480,78.958 24.354,79.405 L64.777,102.743 C65.187,102.986 65.865,103.152 66.546,103.149 C67.228,103.152 67.904,102.987 68.318,102.743 L108.739,79.405 C109.614,78.958 110.560,77.319 110.510,76.338 L110.510,67.892 L22.583,67.892 L22.583,76.338 ZM20.456,33.201 L4.270,33.201 L10.131,43.550 L4.231,54.450 L12.389,54.450 L12.389,38.818 L20.456,38.818 L20.456,33.201 ZM110.511,29.663 C110.560,28.681 109.614,27.044 108.739,26.595 L68.318,3.259 C67.903,3.014 67.228,2.848 66.547,2.853 C65.866,2.848 65.190,3.014 64.775,3.259 L24.354,26.595 C23.480,27.044 22.534,28.681 22.583,29.663 L22.584,29.663 L22.584,38.818 L110.511,38.818 L110.511,29.663 ZM118.577,40.945 L14.516,40.945 L14.516,65.765 L118.577,65.765 L118.577,40.945 ZM129.766,53.014 L120.705,53.014 L120.705,67.892 L112.637,67.892 L112.637,74.261 L129.728,74.261 L123.868,63.912 L129.766,53.014 ZM36.589,55.728 C36.857,55.728 37.086,55.624 37.277,55.417 C37.468,55.210 37.563,54.899 37.563,54.485 L37.563,50.492 L35.043,50.492 L35.043,48.862 L39.475,48.862 L39.475,54.413 C39.475,55.428 39.213,56.186 38.689,56.689 C38.166,57.193 37.494,57.444 36.674,57.444 C35.651,57.444 34.759,57.051 33.996,56.264 L34.982,54.899 C35.493,55.451 36.029,55.728 36.589,55.728 ZM45.477,48.667 C46.734,48.667 47.794,49.087 48.654,49.927 C49.515,50.767 49.944,51.811 49.944,53.062 C49.944,54.311 49.515,55.356 48.654,56.196 C47.794,57.036 46.734,57.457 45.477,57.457 C44.218,57.457 43.159,57.036 42.299,56.196 C41.438,55.356 41.009,54.311 41.009,53.062 C41.009,51.811 41.438,50.767 42.299,49.927 C43.159,49.087 44.218,48.667 45.477,48.667 ZM43.686,55.003 C44.174,55.535 44.772,55.801 45.482,55.801 C46.192,55.801 46.791,55.535 47.278,55.003 C47.765,54.472 48.009,53.827 48.009,53.068 C48.009,52.309 47.765,51.662 47.278,51.126 C46.791,50.590 46.192,50.322 45.482,50.322 C44.772,50.322 44.174,50.590 43.686,51.126 C43.200,51.662 42.957,52.309 42.957,53.068 C42.957,53.827 43.200,54.472 43.686,55.003 ZM53.450,52.416 L56.835,52.416 L56.835,48.862 L58.734,48.862 L58.734,57.371 L56.835,57.371 L56.835,54.023 L53.450,54.023 L53.450,57.371 L51.551,57.371 L51.551,48.862 L53.450,48.862 L53.450,52.416 ZM66.781,54.340 L66.781,48.862 L68.681,48.862 L68.681,57.371 L66.781,57.371 L62.727,52.039 L62.727,57.371 L60.828,57.371 L60.828,48.862 L62.605,48.862 L66.781,54.340 ZM80.489,49.975 C81.301,50.718 81.707,51.751 81.707,53.074 C81.707,54.396 81.311,55.443 80.520,56.215 C79.728,56.986 78.521,57.371 76.897,57.371 L73.988,57.371 L73.988,48.862 L76.995,48.862 C78.513,48.862 79.677,49.233 80.489,49.975 ZM75.888,50.518 L75.888,55.691 L77.093,55.691 C77.961,55.691 78.628,55.471 79.095,55.034 C79.562,54.596 79.795,53.959 79.795,53.123 C79.795,52.286 79.562,51.642 79.095,51.193 C78.628,50.742 77.912,50.518 76.946,50.518 L75.888,50.518 ZM87.331,48.667 C88.589,48.667 89.648,49.087 90.509,49.927 C91.368,50.767 91.799,51.811 91.799,53.062 C91.799,54.311 91.368,55.356 90.509,56.196 C89.648,57.036 88.589,57.457 87.331,57.457 C86.073,57.457 85.014,57.036 84.153,56.196 C83.293,55.356 82.862,54.311 82.862,53.062 C82.862,51.811 83.293,50.767 84.153,49.927 C85.014,49.087 86.073,48.667 87.331,48.667 ZM85.541,55.003 C86.028,55.535 86.627,55.801 87.337,55.801 C88.048,55.801 88.645,55.535 89.133,55.003 C89.620,54.472 89.863,53.827 89.863,53.068 C89.863,52.309 89.620,51.662 89.133,51.126 C88.645,50.590 88.048,50.322 87.337,50.322 C86.627,50.322 86.028,50.590 85.541,51.126 C85.055,51.662 84.811,52.309 84.811,53.068 C84.811,53.827 85.055,54.472 85.541,55.003 ZM99.541,50.553 L95.305,50.553 L95.305,52.307 L99.115,52.307 L99.115,53.926 L95.305,53.926 L95.305,55.691 L99.676,55.691 L99.676,57.371 L93.406,57.371 L93.406,48.862 L99.541,48.862 L99.541,50.553 ZM60.304,23.797 C60.425,23.700 60.557,23.575 60.811,24.008 C60.985,24.320 61.203,24.561 61.435,24.750 C62.420,25.564 63.694,25.477 63.408,26.057 C63.235,26.403 62.745,26.807 62.150,27.153 C62.990,28.456 64.495,29.387 66.263,29.593 L66.263,23.713 L65.130,23.713 L65.130,22.529 L66.263,22.529 L66.263,21.330 L62.972,21.330 L63.722,19.945 L66.263,19.945 L66.263,18.572 C65.372,18.265 64.731,17.422 64.731,16.428 C64.731,15.175 65.748,14.158 67.000,14.158 C68.254,14.158 69.270,15.175 69.270,16.428 C69.270,17.422 68.629,18.265 67.738,18.572 L67.738,19.945 L70.280,19.945 L71.029,21.330 L67.738,21.330 L67.738,22.529 L68.871,22.529 L68.871,23.713 L67.738,23.713 L67.738,29.594 C69.507,29.389 71.014,28.459 71.856,27.158 C71.259,26.810 70.765,26.405 70.593,26.057 C70.305,25.475 71.588,25.564 72.575,24.744 C72.804,24.554 73.017,24.316 73.190,24.008 C73.444,23.575 73.576,23.700 73.697,23.797 C73.835,23.906 73.997,24.131 74.162,24.416 C74.784,25.502 75.416,27.515 74.719,27.874 C74.410,28.031 73.883,27.975 73.307,27.799 C72.092,29.827 69.725,31.202 67.004,31.202 C64.283,31.202 61.916,29.825 60.701,27.797 C60.121,27.975 59.592,28.032 59.282,27.874 C58.581,27.515 59.223,25.480 59.849,24.397 C60.010,24.121 60.169,23.903 60.304,23.797 ZM67.000,17.177 C67.415,17.177 67.750,16.842 67.750,16.428 C67.750,16.014 67.415,15.679 67.000,15.679 C66.587,15.679 66.251,16.014 66.251,16.428 C66.251,16.842 66.587,17.177 67.000,17.177 ZM79.050,80.158 L79.050,83.921 L77.710,83.921 L77.710,77.917 L78.964,77.917 L81.910,81.782 L81.910,77.917 L83.250,77.917 L83.250,83.921 L81.910,83.921 L79.050,80.158 ZM74.042,83.989 C73.160,83.989 72.420,83.697 71.822,83.113 C71.224,82.529 70.924,81.792 70.924,80.901 C70.924,80.012 71.229,79.269 71.839,78.672 C72.449,78.077 73.185,77.779 74.046,77.779 C74.908,77.779 75.657,78.063 76.293,78.630 L75.597,79.635 C75.327,79.400 75.080,79.238 74.854,79.149 C74.628,79.060 74.383,79.016 74.120,79.016 C73.610,79.016 73.181,79.189 72.831,79.536 C72.481,79.883 72.308,80.339 72.308,80.906 C72.308,81.473 72.475,81.927 72.809,82.267 C73.145,82.608 73.544,82.778 74.008,82.778 C74.472,82.778 74.858,82.689 75.167,82.512 L75.167,80.863 L76.516,80.863 L76.516,82.993 C75.920,83.657 75.096,83.989 74.042,83.989 ZM68.450,77.917 L69.791,77.917 L69.791,83.921 L68.450,83.921 L68.450,77.917 ZM65.509,80.317 C66.078,80.458 66.521,80.668 66.836,80.949 C67.150,81.229 67.308,81.639 67.308,82.177 C67.308,82.715 67.106,83.152 66.703,83.487 C66.299,83.822 65.768,83.989 65.109,83.989 C64.159,83.989 63.303,83.637 62.541,82.933 L63.340,81.954 C63.987,82.520 64.585,82.805 65.135,82.805 C65.381,82.805 65.575,82.751 65.715,82.645 C65.855,82.539 65.925,82.396 65.925,82.216 C65.925,82.035 65.851,81.893 65.702,81.786 C65.553,81.681 65.258,81.573 64.817,81.464 C64.119,81.299 63.607,81.082 63.284,80.815 C62.961,80.549 62.799,80.132 62.799,79.562 C62.799,78.992 63.004,78.552 63.413,78.243 C63.822,77.933 64.333,77.779 64.946,77.779 C65.347,77.779 65.748,77.847 66.148,77.986 C66.550,78.123 66.899,78.318 67.196,78.570 L66.519,79.549 C65.997,79.154 65.459,78.957 64.903,78.957 C64.680,78.957 64.504,79.009 64.375,79.115 C64.246,79.220 64.182,79.361 64.182,79.536 C64.182,79.711 64.260,79.849 64.418,79.952 C64.576,80.056 64.939,80.177 65.509,80.317 ZM57.353,77.917 L61.683,77.917 L61.683,79.110 L58.693,79.110 L58.693,80.348 L61.382,80.348 L61.382,81.490 L58.693,81.490 L58.693,82.735 L61.777,82.735 L61.777,83.921 L57.353,83.921 L57.353,77.917 ZM52.801,83.921 L50.748,83.921 L50.748,77.917 L52.870,77.917 C53.940,77.917 54.763,78.179 55.335,78.703 C55.908,79.227 56.194,79.956 56.194,80.889 C56.194,81.822 55.915,82.560 55.356,83.104 C54.798,83.649 53.946,83.921 52.801,83.921 ZM54.352,79.562 C54.022,79.244 53.517,79.085 52.836,79.085 L52.088,79.085 L52.088,82.735 L52.938,82.735 C53.551,82.735 54.022,82.581 54.352,82.271 C54.681,81.962 54.846,81.512 54.846,80.923 C54.846,80.333 54.681,79.880 54.352,79.562 Z"/>
</svg>