<svg 
 xmlns="http://www.w3.org/2000/svg"
 xmlns:xlink="http://www.w3.org/1999/xlink"
 width="127px" height="105px">
<path fill-rule="evenodd"  fill="rgb(16, 16, 18)"
 d="M126.417,24.040 L117.222,35.040 L115.918,33.950 L120.069,23.780 L113.356,31.809 L112.131,30.785 L121.326,19.785 L122.630,20.875 L118.466,31.061 L125.191,23.016 L126.417,24.040 ZM108.651,23.201 C107.792,24.706 106.959,25.611 106.151,25.912 C105.343,26.214 104.490,26.109 103.595,25.599 C102.700,25.088 102.175,24.410 102.023,23.560 C101.870,22.711 102.223,21.533 103.081,20.026 L105.941,15.008 C106.799,13.501 107.632,12.598 108.441,12.295 C109.249,11.994 110.101,12.098 110.997,12.609 C111.893,13.119 112.416,13.799 112.569,14.648 C112.722,15.497 112.369,16.675 111.510,18.182 L108.651,23.201 ZM110.347,13.771 C109.908,13.520 109.461,13.510 109.009,13.739 C108.557,13.968 108.053,14.569 107.499,15.542 L104.335,21.094 C103.781,22.067 103.520,22.807 103.554,23.312 C103.588,23.819 103.824,24.198 104.263,24.448 C105.176,24.968 106.120,24.373 107.094,22.666 L110.256,17.114 C111.230,15.406 111.260,14.291 110.347,13.771 ZM97.362,10.512 C97.916,8.853 97.741,7.858 96.838,7.525 C95.935,7.191 95.227,7.722 94.711,9.118 C94.484,9.734 94.367,10.258 94.360,10.692 C94.352,11.126 94.484,11.568 94.755,12.017 L95.855,13.710 C96.118,14.099 96.317,14.449 96.450,14.760 C96.582,15.071 96.655,15.516 96.667,16.095 C96.679,16.674 96.557,17.309 96.301,18.001 C95.848,19.232 95.263,19.997 94.547,20.301 C93.830,20.604 93.019,20.588 92.109,20.252 C91.199,19.917 90.597,19.360 90.303,18.582 C90.007,17.804 90.081,16.637 90.523,15.083 L92.057,15.365 C91.706,16.473 91.577,17.306 91.669,17.864 C91.762,18.422 92.045,18.788 92.519,18.963 C93.531,19.337 94.287,18.844 94.788,17.487 C95.167,16.462 95.112,15.547 94.623,14.741 L93.505,13.039 C92.654,11.794 92.524,10.371 93.115,8.770 C93.606,7.437 94.203,6.599 94.906,6.255 C95.608,5.910 96.397,5.899 97.275,6.223 C98.152,6.546 98.744,7.045 99.049,7.718 C99.353,8.391 99.318,9.392 98.943,10.725 L97.362,10.512 ZM87.228,37.325 C86.594,37.325 86.123,37.131 85.815,36.742 C85.508,36.352 85.355,35.943 85.355,35.513 L85.723,32.118 C85.723,31.841 85.652,31.612 85.508,31.427 C85.365,31.243 85.137,31.150 84.825,31.150 C84.512,31.150 84.238,31.268 84.003,31.503 C83.767,31.740 83.604,32.041 83.512,32.410 C83.204,35.011 83.004,36.624 82.912,37.248 L80.931,37.248 L81.515,32.149 C81.515,31.862 81.446,31.624 81.308,31.434 C81.169,31.245 80.925,31.150 80.578,31.150 C80.229,31.150 79.942,31.317 79.718,31.650 C79.492,31.982 79.349,32.333 79.287,32.702 C78.929,35.251 78.729,36.767 78.688,37.248 L76.630,37.248 L76.714,36.531 C76.646,36.600 76.580,36.677 76.507,36.734 C76.006,37.128 75.509,37.325 75.018,37.325 C74.075,37.325 73.450,36.997 73.143,36.342 C72.610,37.008 71.927,37.340 71.092,37.340 C70.258,37.340 69.557,37.059 68.988,36.495 C68.884,36.393 68.801,36.277 68.716,36.162 C68.610,36.310 68.521,36.477 68.397,36.604 C67.905,37.105 67.317,37.356 66.630,37.356 C65.944,37.356 65.435,37.187 65.102,36.849 C64.883,36.626 64.763,36.346 64.688,36.039 C64.416,36.385 64.092,36.681 63.697,36.911 C63.195,37.207 62.629,37.356 61.999,37.356 C61.370,37.356 60.875,37.179 60.517,36.826 C60.282,36.595 60.153,36.287 60.072,35.944 C59.787,36.336 59.430,36.659 58.997,36.911 C58.495,37.207 57.929,37.356 57.299,37.356 C56.669,37.356 56.175,37.179 55.817,36.826 C55.706,36.717 55.644,36.572 55.568,36.438 C55.524,36.489 55.495,36.556 55.448,36.604 C54.957,37.105 54.368,37.356 53.682,37.356 C52.996,37.356 52.486,37.187 52.153,36.849 C51.821,36.511 51.654,36.075 51.654,35.543 C51.654,35.431 51.659,35.312 51.669,35.190 L52.223,30.444 C52.325,30.259 52.519,30.119 52.807,30.021 C53.093,29.924 53.377,29.875 53.659,29.875 C53.940,29.875 54.189,29.911 54.404,29.983 C54.004,33.065 53.804,34.622 53.804,34.653 C53.753,34.858 53.728,35.029 53.728,35.167 C53.728,35.305 53.738,35.426 53.759,35.528 C53.799,35.795 53.987,35.928 54.319,35.928 C54.652,35.928 54.959,35.710 55.241,35.274 C55.261,35.242 55.275,35.204 55.295,35.172 C55.360,34.495 55.631,32.137 56.108,28.078 C56.252,26.870 56.636,26.107 57.261,25.789 C57.547,25.636 57.890,25.559 58.290,25.559 C59.642,25.559 60.317,26.184 60.317,27.433 C60.317,27.535 60.312,27.643 60.302,27.755 C60.199,29.128 59.339,30.526 57.721,31.950 C57.670,32.451 57.614,32.937 57.553,33.408 C57.430,34.463 57.368,35.047 57.368,35.160 C57.368,35.692 57.599,35.958 58.060,35.958 C58.561,35.958 59.029,35.669 59.465,35.091 C59.734,34.734 59.951,34.293 60.143,33.813 C60.280,32.603 60.499,30.709 60.809,28.078 C60.952,26.870 61.336,26.107 61.961,25.789 C62.248,25.636 62.591,25.559 62.990,25.559 C64.342,25.559 65.018,26.184 65.018,27.433 C65.018,27.535 65.013,27.643 65.002,27.755 C64.900,29.128 64.039,30.526 62.421,31.950 C62.370,32.451 62.314,32.937 62.253,33.408 C62.130,34.463 62.068,35.047 62.068,35.160 C62.068,35.692 62.299,35.958 62.760,35.958 C63.262,35.958 63.730,35.669 64.165,35.091 C64.384,34.799 64.578,34.466 64.746,34.093 L65.171,30.444 C65.273,30.259 65.468,30.119 65.755,30.021 C66.041,29.924 66.325,29.875 66.608,29.875 C66.889,29.875 67.137,29.911 67.352,29.983 C66.953,33.065 66.753,34.622 66.753,34.653 C66.702,34.858 66.677,35.029 66.677,35.167 C66.677,35.305 66.686,35.426 66.707,35.528 C66.748,35.795 66.935,35.928 67.268,35.928 C67.601,35.928 67.908,35.710 68.189,35.274 C68.213,35.238 68.229,35.195 68.252,35.157 C68.183,34.880 68.136,34.589 68.136,34.268 C68.136,32.927 68.530,31.857 69.318,31.058 C70.107,30.259 71.105,29.860 72.314,29.860 C72.344,29.860 72.375,29.860 72.406,29.860 C72.917,29.860 73.389,29.948 73.819,30.121 C74.095,29.948 74.431,29.860 74.825,29.860 C75.219,29.860 75.504,29.911 75.678,30.014 C75.585,30.771 75.488,31.516 75.386,32.248 C75.283,32.981 75.211,33.500 75.171,33.807 C75.078,34.504 75.032,35.005 75.032,35.312 C75.032,35.723 75.196,35.928 75.524,35.928 C75.780,35.928 76.052,35.756 76.338,35.414 C76.588,35.114 76.808,34.658 77.003,34.061 L77.475,30.029 C77.905,29.916 78.232,29.860 78.457,29.860 C79.103,29.860 79.456,30.076 79.517,30.505 C80.019,30.076 80.567,29.860 81.161,29.860 C82.349,29.860 83.107,30.213 83.434,30.919 C83.936,30.203 84.653,29.845 85.585,29.845 C86.271,29.845 86.814,30.021 87.213,30.375 C87.613,30.728 87.812,31.171 87.812,31.703 C87.812,31.857 87.782,32.128 87.720,32.517 C87.485,34.053 87.367,34.955 87.367,35.221 C87.367,35.702 87.525,35.943 87.843,35.943 C88.109,35.943 88.393,35.766 88.696,35.414 C88.998,35.059 89.241,34.515 89.425,33.777 C89.773,34.146 89.983,34.437 90.055,34.653 C89.522,36.434 88.581,37.325 87.228,37.325 ZM59.304,27.633 C59.304,27.141 59.119,26.895 58.751,26.895 C58.514,26.916 58.359,27.070 58.282,27.356 C58.205,27.643 58.133,28.109 58.067,28.754 C58.000,29.399 57.956,29.799 57.936,29.952 L57.890,30.413 C58.832,29.379 59.304,28.452 59.304,27.633 ZM64.004,27.633 C64.004,27.141 63.819,26.895 63.451,26.895 C63.216,26.916 63.059,27.070 62.982,27.356 C62.906,27.643 62.833,28.109 62.768,28.754 C62.701,29.399 62.657,29.799 62.637,29.952 L62.591,30.413 C63.533,29.379 64.004,28.452 64.004,27.633 ZM72.544,31.058 C71.889,31.058 71.369,31.307 70.985,31.803 C70.601,32.300 70.373,33.040 70.301,34.023 C70.291,34.115 70.286,34.202 70.286,34.284 C70.286,34.786 70.406,35.186 70.647,35.482 C70.888,35.780 71.197,35.928 71.576,35.928 C72.222,35.928 72.708,35.472 73.036,34.560 L73.404,31.243 C73.107,31.120 72.821,31.058 72.544,31.058 ZM81.059,16.722 L79.749,5.815 L77.780,16.094 L76.210,15.793 L78.909,1.712 L80.579,2.033 L81.884,12.959 L83.857,2.660 L85.427,2.962 L82.728,17.042 L81.059,16.722 ZM67.529,25.935 C67.769,26.176 67.890,26.465 67.890,26.803 C67.890,27.141 67.769,27.428 67.529,27.663 C67.289,27.899 66.999,28.016 66.662,28.016 C66.323,28.016 66.036,27.899 65.801,27.663 C65.566,27.428 65.448,27.141 65.448,26.803 C65.448,26.465 65.566,26.176 65.801,25.935 C66.036,25.695 66.323,25.575 66.662,25.575 C66.999,25.575 67.289,25.695 67.529,25.935 ZM66.474,1.950 L66.292,7.169 L69.486,7.280 L69.440,8.590 L66.247,8.479 L66.066,13.658 L69.628,13.782 L69.583,15.092 L64.384,14.911 L64.882,0.583 L70.019,0.761 L69.974,2.071 L66.474,1.950 ZM53.712,25.575 C54.050,25.575 54.339,25.695 54.580,25.935 C54.821,26.176 54.941,26.465 54.941,26.803 C54.941,27.141 54.821,27.428 54.580,27.663 C54.339,27.899 54.050,28.016 53.712,28.016 C53.375,28.016 53.088,27.899 52.852,27.663 C52.617,27.428 52.499,27.141 52.499,26.803 C52.499,26.465 52.617,26.176 52.852,25.935 C53.088,25.695 53.375,25.575 53.712,25.575 ZM54.947,8.873 L51.875,9.231 L52.626,15.680 L50.998,15.869 L49.340,1.630 L50.968,1.440 L51.724,7.929 L54.795,7.572 L54.040,1.082 L55.647,0.895 L57.305,15.135 L55.698,15.322 L54.947,8.873 ZM50.487,25.544 C51.060,25.544 51.347,25.882 51.347,26.558 C51.347,27.613 51.183,29.215 50.855,31.366 C50.589,33.157 50.221,34.473 49.749,35.312 C49.534,35.672 49.289,36.015 49.013,36.342 C48.438,37.008 47.638,37.340 46.608,37.340 C45.579,37.340 44.845,36.900 44.404,36.019 C43.841,36.900 42.986,37.340 41.839,37.340 C41.102,37.340 40.530,37.128 40.126,36.703 C39.721,36.278 39.519,35.712 39.519,35.005 C39.519,34.913 39.529,34.776 39.550,34.591 L40.119,30.259 C39.022,29.471 38.475,28.585 38.475,27.602 C38.475,26.977 38.690,26.481 39.119,26.112 C39.550,25.744 40.072,25.559 40.687,25.559 C42.028,25.559 42.699,26.225 42.699,27.556 C42.699,27.577 42.696,27.602 42.691,27.633 C42.686,27.663 42.681,27.712 42.676,27.779 C42.671,27.845 42.661,27.922 42.646,28.009 C42.630,28.096 42.609,28.227 42.584,28.401 C42.558,28.575 42.530,28.767 42.499,28.977 C42.468,29.187 42.428,29.466 42.376,29.814 C42.326,30.162 42.271,30.538 42.215,30.943 C42.159,31.347 42.090,31.841 42.008,32.425 C41.926,33.009 41.854,33.506 41.793,33.915 C41.731,34.325 41.700,34.622 41.700,34.806 C41.700,35.493 41.966,35.835 42.499,35.835 C43.237,35.835 43.692,35.164 43.866,33.823 L44.850,26.066 C45.187,25.912 45.592,25.836 46.063,25.836 C46.718,25.836 47.046,26.091 47.046,26.603 L47.031,26.803 C46.642,29.793 46.386,31.636 46.263,32.333 C46.058,33.480 45.956,34.353 45.956,34.952 C45.956,35.551 46.212,35.851 46.724,35.851 C47.154,35.851 47.538,35.541 47.875,34.921 C48.214,34.302 48.470,33.531 48.644,32.610 C49.002,30.684 49.181,29.020 49.181,27.618 C49.181,26.962 49.125,26.393 49.013,25.912 C49.422,25.666 49.913,25.544 50.487,25.544 ZM40.087,26.788 C39.894,26.788 39.750,26.860 39.658,27.003 C39.566,27.146 39.519,27.310 39.519,27.494 C39.519,27.955 39.775,28.432 40.288,28.923 L40.364,28.308 C40.405,27.970 40.428,27.633 40.434,27.295 C40.438,26.957 40.323,26.788 40.087,26.788 ZM40.452,13.018 L39.584,13.260 L40.948,18.153 L39.369,18.593 L35.520,4.782 L37.967,4.100 C38.953,3.826 39.802,3.933 40.512,4.422 C41.223,4.911 41.810,5.992 42.276,7.662 L42.304,7.761 C42.769,9.431 42.823,10.657 42.467,11.436 C42.110,12.216 41.438,12.743 40.452,13.018 ZM40.816,8.452 L40.646,7.840 C40.107,5.906 39.331,5.080 38.319,5.364 L37.451,5.604 L39.237,12.017 L40.106,11.775 C41.119,11.493 41.355,10.385 40.816,8.452 ZM22.472,9.880 L27.161,7.774 L27.698,8.970 L24.503,10.405 L26.643,15.169 L29.558,13.860 L30.095,15.056 L27.180,16.365 L29.303,21.092 L32.554,19.631 L33.091,20.827 L28.345,22.958 L22.472,9.880 ZM19.957,27.749 L12.946,16.771 L11.271,17.840 L10.566,16.736 L15.278,13.726 L15.984,14.831 L14.310,15.901 L21.321,26.878 L19.957,27.749 ZM11.601,29.750 C12.471,30.732 12.871,31.608 12.801,32.383 C12.730,33.157 12.333,33.867 11.608,34.510 C10.883,35.154 10.107,35.422 9.282,35.315 C8.457,35.208 7.463,34.593 6.302,33.469 L7.273,32.250 C8.085,33.082 8.759,33.588 9.294,33.771 C9.830,33.952 10.287,33.875 10.664,33.540 C11.471,32.824 11.394,31.924 10.433,30.842 C9.707,30.025 8.875,29.642 7.934,29.693 L5.906,29.877 C4.407,30.039 3.091,29.483 1.957,28.206 C1.015,27.144 0.557,26.223 0.584,25.441 C0.611,24.659 0.974,23.958 1.674,23.336 C2.373,22.716 3.091,22.430 3.828,22.478 C4.565,22.527 5.432,23.030 6.429,23.989 L5.497,25.283 C4.296,24.012 3.335,23.697 2.616,24.335 C1.895,24.974 2.030,25.850 3.018,26.963 C3.453,27.453 3.860,27.805 4.239,28.015 C4.618,28.226 5.070,28.319 5.594,28.292 L7.606,28.121 C8.073,28.072 8.475,28.061 8.812,28.091 C9.148,28.120 9.575,28.267 10.091,28.530 C10.608,28.792 11.111,29.200 11.601,29.750 ZM27.573,67.055 C30.454,66.255 33.479,65.547 36.612,64.930 L37.459,67.203 C31.471,68.377 25.838,69.876 20.677,71.633 L20.334,61.366 L14.114,54.083 C16.936,53.160 19.852,52.307 22.838,51.524 L27.573,67.055 ZM29.701,88.937 C29.827,89.159 30.003,89.270 30.230,89.270 C30.716,89.270 30.959,88.944 30.959,88.293 C30.959,87.801 30.793,87.423 30.461,87.159 L29.724,86.616 C29.171,86.222 28.894,85.642 28.894,84.873 C28.894,84.234 29.016,83.788 29.258,83.533 C29.501,83.278 29.833,83.150 30.254,83.150 C30.675,83.150 31.002,83.268 31.235,83.505 C31.469,83.742 31.609,84.170 31.659,84.790 L30.959,84.947 C30.935,84.160 30.705,83.768 30.272,83.768 C29.839,83.768 29.622,84.102 29.622,84.771 C29.622,85.067 29.654,85.306 29.719,85.491 C29.784,85.675 29.908,85.841 30.093,85.989 L30.820,86.533 C30.992,86.656 31.131,86.772 31.235,86.882 C31.340,86.993 31.439,87.170 31.535,87.412 C31.630,87.655 31.677,87.942 31.677,88.275 C31.677,88.865 31.550,89.279 31.295,89.518 C31.040,89.758 30.694,89.878 30.258,89.878 C29.822,89.878 29.480,89.737 29.235,89.454 C28.990,89.171 28.839,88.667 28.784,87.942 L29.475,87.822 C29.499,88.345 29.575,88.716 29.701,88.937 ZM35.410,89.740 L34.673,89.740 L34.673,83.287 L35.410,83.287 L35.410,89.740 ZM40.867,88.007 L40.867,83.287 L41.585,83.287 L41.585,89.740 L40.821,89.740 L39.318,85.030 L39.318,89.740 L38.599,89.740 L38.599,83.287 L39.364,83.287 L40.867,88.007 ZM46.004,83.150 C46.419,83.150 46.735,83.258 46.954,83.473 C47.172,83.687 47.305,84.072 47.355,84.624 L46.683,84.790 C46.645,84.396 46.576,84.126 46.475,83.975 C46.373,83.824 46.223,83.749 46.023,83.749 C45.823,83.749 45.665,83.846 45.548,84.039 C45.431,84.233 45.373,84.587 45.373,85.104 L45.373,87.961 C45.373,88.465 45.431,88.810 45.548,88.998 C45.665,89.185 45.831,89.279 46.046,89.279 C46.261,89.279 46.422,89.198 46.530,89.034 C46.638,88.872 46.709,88.562 46.747,88.109 L47.392,88.191 C47.336,88.818 47.197,89.256 46.973,89.504 C46.748,89.754 46.427,89.878 46.009,89.878 C45.591,89.878 45.259,89.728 45.014,89.426 C44.769,89.125 44.645,88.573 44.645,87.767 L44.645,85.260 C44.645,84.455 44.769,83.903 45.014,83.602 C45.259,83.300 45.590,83.150 46.004,83.150 ZM52.589,89.150 L52.589,89.740 L50.248,89.740 L50.248,83.287 L52.562,83.287 L52.562,83.878 L50.986,83.878 L50.986,86.229 L52.424,86.229 L52.424,86.818 L50.986,86.818 L50.986,89.150 L52.589,89.150 ZM76.497,83.722 C76.284,83.722 76.120,83.809 76.003,83.984 C75.886,84.160 75.810,84.477 75.773,84.937 L75.128,84.836 C75.183,84.203 75.324,83.765 75.552,83.518 C75.779,83.273 76.104,83.150 76.528,83.150 C76.953,83.150 77.286,83.262 77.529,83.486 C77.771,83.710 77.893,84.114 77.893,84.694 C77.893,85.274 77.703,85.872 77.321,86.487 L75.662,89.150 L77.874,89.150 L77.874,89.740 L75.118,89.740 L75.118,89.297 C75.118,88.984 75.169,88.705 75.270,88.458 C75.372,88.213 75.598,87.813 75.948,87.260 L76.712,86.062 C77.014,85.645 77.164,85.183 77.164,84.680 C77.164,84.324 77.106,84.074 76.989,83.933 C76.873,83.792 76.708,83.722 76.497,83.722 ZM48.331,101.924 L48.902,101.349 L47.313,101.004 L47.412,100.551 L49.291,100.959 L49.861,100.385 L48.273,100.039 L48.372,99.584 L50.251,99.991 L50.819,99.419 L49.231,99.073 L49.332,98.617 L51.208,99.027 L63.483,86.669 L48.918,72.202 L48.321,73.824 L46.304,69.238 L46.308,69.240 L46.304,69.234 L50.905,71.224 L49.234,71.859 L63.811,86.339 L78.251,71.801 L76.632,71.205 L81.218,69.185 L81.216,69.189 L81.219,69.187 L79.229,73.787 L78.594,72.117 L64.141,86.667 L76.461,98.906 L78.270,98.501 L78.370,98.954 L76.854,99.294 L77.429,99.865 L79.233,99.460 L79.335,99.912 L77.818,100.253 L78.394,100.824 L80.199,100.420 L80.303,100.872 L78.785,101.213 L79.359,101.786 L81.167,101.377 L81.268,101.831 L79.526,102.223 L79.486,102.262 L79.087,104.100 L78.632,104.000 L79.042,102.123 L78.467,101.552 L78.120,103.140 L77.667,103.042 L78.078,101.164 L77.501,100.592 L77.157,102.180 L76.701,102.081 L77.110,100.204 L76.535,99.633 L76.189,101.221 L75.735,101.123 L76.144,99.246 L63.812,86.996 L51.545,99.345 L51.955,101.151 L51.501,101.251 L51.159,99.735 L50.587,100.309 L50.993,102.114 L50.541,102.217 L50.199,100.702 L49.628,101.275 L50.032,103.083 L49.581,103.183 L49.242,101.665 L48.670,102.242 L49.076,104.050 L48.623,104.151 L48.230,102.408 L48.191,102.369 L46.354,101.971 L46.451,101.517 L48.331,101.924 ZM63.774,103.348 L64.696,97.966 L65.433,97.966 L64.235,104.417 L63.313,104.417 L62.116,97.966 L62.852,97.966 L63.774,103.348 ZM80.814,87.813 L80.814,85.214 C80.814,84.434 80.938,83.895 81.187,83.597 C81.436,83.299 81.792,83.150 82.257,83.150 C82.721,83.150 83.077,83.299 83.326,83.597 C83.575,83.895 83.699,84.434 83.699,85.214 L83.699,87.813 C83.699,88.594 83.575,89.133 83.326,89.431 C83.077,89.729 82.721,89.878 82.257,89.878 C81.792,89.878 81.436,89.729 81.187,89.431 C80.938,89.133 80.814,88.594 80.814,87.813 ZM81.542,87.951 C81.542,88.455 81.605,88.803 81.731,88.993 C81.857,89.184 82.034,89.279 82.261,89.279 C82.734,89.279 82.970,88.836 82.970,87.951 L82.970,85.077 C82.970,84.192 82.734,83.749 82.261,83.749 C82.034,83.749 81.857,83.844 81.731,84.035 C81.605,84.225 81.542,84.573 81.542,85.077 L81.542,87.951 ZM88.072,83.150 C88.536,83.150 88.892,83.299 89.141,83.597 C89.390,83.895 89.515,84.434 89.515,85.214 L89.515,87.813 C89.515,88.594 89.390,89.133 89.141,89.431 C88.892,89.729 88.536,89.878 88.072,89.878 C87.608,89.878 87.251,89.729 87.003,89.431 C86.754,89.133 86.630,88.594 86.630,87.813 L86.630,85.214 C86.630,84.434 86.754,83.895 87.003,83.597 C87.251,83.299 87.608,83.150 88.072,83.150 ZM87.357,87.951 C87.357,88.455 87.421,88.803 87.547,88.993 C87.673,89.184 87.850,89.279 88.077,89.279 C88.549,89.279 88.786,88.836 88.786,87.951 L88.786,85.077 C88.786,84.192 88.549,83.749 88.077,83.749 C87.850,83.749 87.673,83.844 87.547,84.035 C87.421,84.225 87.357,84.573 87.357,85.077 L87.357,87.951 ZM24.334,47.121 C36.141,44.319 49.274,42.751 63.111,42.737 C77.882,42.722 91.852,44.479 104.271,47.621 L99.044,65.616 C88.608,62.814 76.304,61.202 63.129,61.215 C50.819,61.228 39.269,62.658 29.297,65.151 L24.334,47.121 ZM82.230,56.462 L82.555,54.013 L83.003,54.072 L83.391,56.615 L84.140,56.714 L83.727,54.000 C84.211,53.810 84.515,53.253 84.637,52.327 L84.643,52.280 C84.741,51.537 84.685,51.007 84.473,50.687 C84.261,50.368 83.930,50.179 83.479,50.119 L82.346,49.969 L81.500,56.365 L82.230,56.462 ZM78.520,56.028 L78.575,55.441 L76.978,55.291 L77.195,52.970 L78.627,53.104 L78.681,52.516 L77.250,52.382 L77.469,50.043 L79.038,50.190 L79.093,49.602 L76.790,49.387 L76.190,55.811 L78.520,56.028 ZM70.746,55.445 L71.002,50.741 L72.246,55.526 L73.010,55.568 L73.361,49.125 L72.643,49.087 L72.385,53.799 L71.143,49.004 L70.379,48.963 L70.027,55.405 L70.746,55.445 ZM64.437,54.951 C64.644,55.253 64.942,55.407 65.329,55.413 C65.808,55.420 66.144,55.176 66.336,54.682 L66.456,55.282 L66.907,55.290 L66.960,51.880 L65.514,51.858 L65.504,52.447 L66.260,52.459 L66.243,53.583 C66.217,54.412 65.971,54.824 65.504,54.816 C65.295,54.812 65.136,54.715 65.024,54.523 C64.914,54.331 64.863,53.982 64.871,53.479 L64.915,50.631 C64.923,50.116 64.987,49.761 65.106,49.570 C65.226,49.378 65.386,49.284 65.586,49.286 C65.785,49.290 65.934,49.367 66.034,49.520 C66.133,49.672 66.198,49.945 66.228,50.338 L66.903,50.183 C66.863,49.629 66.735,49.243 66.521,49.025 C66.306,48.806 65.992,48.694 65.577,48.687 C65.162,48.681 64.830,48.826 64.579,49.123 C64.329,49.421 64.197,49.972 64.185,50.777 L64.144,53.329 C64.133,54.110 64.230,54.650 64.437,54.951 ZM60.314,55.282 L61.051,55.271 L60.952,48.821 L60.214,48.832 L60.314,55.282 ZM55.859,54.956 C55.632,54.967 55.450,54.865 55.314,54.650 C55.178,54.435 55.085,54.067 55.037,53.546 L54.352,53.699 C54.441,54.419 54.615,54.916 54.873,55.187 C55.132,55.458 55.479,55.583 55.915,55.563 C56.351,55.542 56.690,55.407 56.933,55.156 C57.178,54.905 57.286,54.484 57.258,53.895 C57.242,53.564 57.182,53.279 57.075,53.041 C56.969,52.803 56.861,52.631 56.751,52.526 C56.642,52.420 56.498,52.309 56.321,52.195 L55.568,51.685 C55.377,51.547 55.245,51.387 55.172,51.205 C55.099,51.024 55.056,50.787 55.042,50.492 C55.011,49.823 55.212,49.479 55.644,49.458 C56.077,49.439 56.324,49.821 56.385,50.604 L57.077,50.415 C56.999,49.798 56.838,49.377 56.594,49.151 C56.350,48.926 56.018,48.823 55.597,48.843 C55.177,48.862 54.851,49.004 54.621,49.271 C54.390,49.536 54.290,49.989 54.320,50.627 C54.355,51.394 54.658,51.962 55.229,52.328 L55.991,52.837 C56.335,53.086 56.518,53.456 56.541,53.947 C56.571,54.597 56.344,54.934 55.859,54.956 ZM49.307,55.872 L51.640,55.678 L51.590,55.089 L49.993,55.223 L49.798,52.900 L51.231,52.780 L51.182,52.193 L49.749,52.312 L49.553,49.970 L51.124,49.839 L51.075,49.251 L48.769,49.444 L49.307,55.872 ZM43.570,56.508 L44.814,56.355 C45.277,56.299 45.616,56.108 45.830,55.782 C46.044,55.455 46.103,54.905 46.009,54.129 L45.725,51.825 C45.631,51.050 45.440,50.530 45.154,50.265 C44.868,50.000 44.493,49.896 44.030,49.953 L42.785,50.104 L43.570,56.508 ZM44.984,51.757 L45.307,54.383 C45.413,55.255 45.225,55.721 44.743,55.780 L44.231,55.842 L43.589,50.600 L44.101,50.538 C44.583,50.479 44.877,50.885 44.984,51.757 ZM83.401,50.704 C83.621,50.733 83.781,50.846 83.881,51.046 C83.982,51.245 84.001,51.579 83.939,52.049 L83.903,52.323 C83.791,53.164 83.502,53.552 83.033,53.491 L82.631,53.437 L82.999,50.650 L83.401,50.704 ZM61.840,75.328 L61.840,68.876 L62.965,68.876 L63.749,73.346 L64.541,68.876 L65.665,68.876 L65.665,75.328 L64.947,75.328 L64.947,69.503 L64.163,73.945 L63.342,73.945 L62.559,69.503 L62.559,75.328 L61.840,75.328 ZM100.980,67.484 L105.685,51.944 C108.672,52.723 111.586,53.567 114.412,54.489 L108.206,61.780 L107.887,72.052 C102.718,70.302 97.083,68.814 91.096,67.654 L91.936,65.377 C95.073,65.989 98.096,66.692 100.980,67.484 ZM93.832,83.150 C94.253,83.150 94.576,83.259 94.800,83.477 C95.024,83.696 95.161,84.084 95.210,84.643 L94.537,84.809 C94.513,84.409 94.447,84.133 94.339,83.979 C94.231,83.826 94.072,83.749 93.860,83.749 C93.648,83.749 93.480,83.846 93.358,84.039 C93.235,84.233 93.173,84.587 93.173,85.104 L93.173,86.302 C93.382,86.074 93.674,85.961 94.049,85.961 C94.423,85.961 94.731,86.102 94.971,86.385 C95.210,86.668 95.330,87.179 95.330,87.919 C95.330,88.660 95.204,89.171 94.952,89.454 C94.700,89.737 94.344,89.878 93.883,89.878 C93.422,89.878 93.067,89.737 92.818,89.454 C92.570,89.171 92.445,88.655 92.445,87.906 L92.445,85.260 C92.445,84.462 92.571,83.910 92.823,83.606 C93.075,83.302 93.411,83.150 93.832,83.150 ZM93.173,88.035 C93.173,88.882 93.416,89.306 93.902,89.306 C94.387,89.306 94.630,88.882 94.630,88.035 L94.630,87.804 C94.630,86.956 94.389,86.533 93.906,86.533 C93.424,86.533 93.180,86.932 93.173,87.731 L93.173,88.035 Z"/>
</svg>