<svg 
 xmlns="http://www.w3.org/2000/svg"
 xmlns:xlink="http://www.w3.org/1999/xlink"
 width="94px" height="106px">
<path fill-rule="evenodd"  fill="rgb(16, 16, 18)"
 d="M93.950,21.835 L87.189,28.211 L85.766,26.702 L86.965,19.485 L82.728,23.480 L81.305,21.972 L88.067,15.595 L89.398,17.008 L88.174,24.431 L92.527,20.326 L93.950,21.835 ZM79.487,18.930 C78.198,19.178 76.980,18.924 75.833,18.168 C74.686,17.410 73.974,16.390 73.694,15.107 C73.416,13.824 73.652,12.613 74.404,11.473 C75.155,10.334 76.176,9.640 77.466,9.393 C78.755,9.144 79.973,9.398 81.120,10.154 C82.267,10.912 82.980,11.931 83.258,13.215 C83.537,14.498 83.301,15.709 82.549,16.849 C81.798,17.988 80.777,18.681 79.487,18.930 ZM81.283,13.480 C81.161,12.699 80.777,12.095 80.129,11.668 C79.481,11.240 78.775,11.125 78.009,11.320 C77.243,11.515 76.632,11.959 76.176,12.650 C75.720,13.343 75.553,14.077 75.677,14.854 C75.802,15.632 76.187,16.234 76.834,16.662 C77.481,17.089 78.188,17.206 78.951,17.015 C79.715,16.823 80.324,16.382 80.780,15.689 C81.237,14.998 81.405,14.262 81.283,13.480 ZM70.143,6.399 C69.823,6.267 69.540,6.238 69.293,6.313 C69.046,6.389 68.871,6.551 68.767,6.801 C68.664,7.050 68.693,7.295 68.857,7.536 C69.022,7.777 69.469,8.166 70.200,8.705 C70.932,9.244 71.439,9.807 71.724,10.395 C72.007,10.983 71.989,11.662 71.670,12.432 C71.351,13.201 70.804,13.706 70.026,13.945 C69.251,14.184 68.393,14.109 67.451,13.719 C66.092,13.154 65.077,12.142 64.406,10.683 L66.129,9.758 C66.718,10.952 67.405,11.713 68.191,12.039 C68.543,12.186 68.851,12.223 69.114,12.156 C69.377,12.088 69.563,11.925 69.670,11.666 C69.777,11.408 69.755,11.160 69.606,10.920 C69.456,10.681 69.098,10.351 68.531,9.934 C67.631,9.283 67.029,8.670 66.725,8.098 C66.420,7.524 66.437,6.831 66.774,6.017 C67.112,5.202 67.666,4.695 68.435,4.496 C69.204,4.297 70.026,4.379 70.902,4.742 C71.476,4.980 72.008,5.316 72.500,5.751 C72.991,6.185 73.375,6.671 73.651,7.208 L72.100,8.205 C71.589,7.331 70.937,6.728 70.143,6.399 ZM60.236,11.123 L57.150,4.490 L55.910,10.180 L53.883,9.738 L55.864,0.657 L57.761,1.071 L60.941,7.889 L62.217,2.043 L64.243,2.485 L62.262,11.565 L60.236,11.123 ZM48.189,39.609 L48.189,43.768 L55.891,43.768 L58.158,47.962 L48.189,47.962 L48.189,51.595 L51.621,51.595 L51.621,55.182 L48.189,55.182 L48.189,72.996 C53.550,72.378 58.113,69.560 60.666,65.617 C58.856,64.563 57.360,63.336 56.839,62.279 C55.965,60.522 59.854,60.791 62.842,58.306 C63.537,57.729 64.182,57.009 64.706,56.076 C65.475,54.765 65.874,55.142 66.241,55.434 C66.660,55.769 67.153,56.447 67.649,57.310 C69.535,60.600 71.447,66.703 69.336,67.786 C68.403,68.264 66.808,68.092 65.061,67.560 C61.379,73.703 54.209,77.871 45.966,77.871 C37.723,77.871 30.552,73.698 26.869,67.553 C25.115,68.090 23.511,68.268 22.573,67.786 C20.449,66.698 22.392,60.535 24.289,57.256 C24.775,56.415 25.259,55.760 25.668,55.434 C26.036,55.142 26.434,54.765 27.203,56.076 C27.733,57.019 28.390,57.749 29.094,58.325 C32.079,60.788 35.940,60.527 35.072,62.279 C34.549,63.331 33.064,64.554 31.262,65.603 C33.807,69.551 38.365,72.369 43.721,72.995 L43.721,55.182 L40.288,55.182 L40.288,51.595 L43.721,51.595 L43.721,47.962 L33.751,47.962 L36.023,43.768 L43.721,43.768 L43.721,39.609 C41.021,38.681 39.080,36.123 39.080,33.110 C39.080,29.315 42.158,26.235 45.953,26.235 C49.752,26.235 52.832,29.315 52.832,33.110 C52.832,36.123 50.888,38.681 48.189,39.609 ZM45.953,30.843 C44.701,30.843 43.684,31.857 43.684,33.110 C43.684,34.364 44.701,35.380 45.953,35.380 C47.209,35.380 48.226,34.364 48.226,33.110 C48.226,31.857 47.209,30.843 45.953,30.843 ZM47.580,1.920 L47.500,3.833 L51.658,4.008 L51.584,5.775 L47.426,5.600 L47.345,7.526 L52.113,7.726 L52.036,9.560 L45.195,9.272 L45.586,-0.014 L52.281,0.269 L52.204,2.115 L47.580,1.920 ZM40.382,5.924 L36.713,6.371 L37.156,10.001 L35.097,10.252 L33.972,1.026 L36.030,0.775 L36.501,4.630 L40.169,4.182 L39.699,0.328 L41.758,0.076 L42.884,9.302 L40.825,9.554 L40.382,5.924 ZM28.856,9.269 L27.672,9.627 L28.422,12.108 L26.437,12.709 L23.748,3.812 L26.891,2.862 C28.257,2.449 29.332,2.414 30.116,2.756 C30.900,3.097 31.458,3.818 31.790,4.916 C32.122,6.016 32.045,6.916 31.559,7.619 C31.071,8.322 30.171,8.872 28.856,9.269 ZM29.720,5.418 C29.564,4.904 29.299,4.586 28.924,4.463 C28.549,4.341 28.034,4.378 27.381,4.575 L26.249,4.918 L27.153,7.909 L28.489,7.505 C29.151,7.305 29.560,7.035 29.717,6.696 C29.873,6.357 29.875,5.931 29.720,5.418 ZM19.596,13.848 L23.872,11.727 L24.687,13.370 L18.553,16.412 L14.424,8.086 L20.427,5.109 L21.248,6.765 L17.103,8.820 L17.954,10.536 L21.682,8.686 L22.467,10.271 L18.739,12.120 L19.596,13.848 ZM15.098,18.703 L13.418,19.920 L9.019,13.846 L6.887,15.392 L5.834,13.937 L11.777,9.632 L12.831,11.086 L10.699,12.630 L15.098,18.703 ZM2.074,20.163 C2.054,20.420 2.140,20.642 2.334,20.831 C2.528,21.018 2.768,21.080 3.052,21.016 C3.336,20.952 3.863,20.679 4.632,20.195 C5.401,19.713 6.112,19.447 6.763,19.399 C7.414,19.351 8.039,19.616 8.638,20.195 C9.236,20.775 9.505,21.470 9.443,22.279 C9.381,23.089 8.996,23.860 8.287,24.593 C7.264,25.649 5.950,26.223 4.347,26.312 L4.118,24.370 C5.445,24.260 6.404,23.899 6.996,23.288 C7.261,23.014 7.410,22.742 7.443,22.473 C7.477,22.202 7.393,21.969 7.192,21.775 C6.991,21.581 6.752,21.511 6.474,21.561 C6.196,21.613 5.759,21.826 5.164,22.199 C4.227,22.798 3.436,23.134 2.792,23.207 C2.148,23.279 1.508,23.011 0.874,22.396 C0.241,21.783 -0.028,21.083 0.069,20.294 C0.165,19.506 0.543,18.771 1.203,18.090 C1.634,17.643 2.143,17.271 2.727,16.974 C3.311,16.676 3.903,16.497 4.505,16.436 L4.863,18.245 C3.863,18.400 3.064,18.786 2.466,19.404 C2.226,19.652 2.095,19.905 2.074,20.163 ZM7.023,81.533 L5.029,86.821 L9.706,83.754 L11.377,85.136 L9.229,90.296 L14.060,87.356 L15.791,88.789 L7.367,93.881 L6.179,92.897 L8.731,86.622 L3.055,90.312 L1.866,89.329 L5.292,80.102 L7.023,81.533 ZM10.401,46.602 L10.401,48.902 C10.401,49.498 10.237,49.957 9.907,50.275 C9.578,50.596 9.156,50.755 8.643,50.755 C8.129,50.755 7.706,50.594 7.375,50.273 C7.043,49.952 6.878,49.494 6.878,48.902 L6.878,46.602 L7.795,46.602 L7.795,48.873 C7.795,49.202 7.872,49.462 8.025,49.652 C8.178,49.843 8.384,49.937 8.643,49.937 C8.901,49.937 9.106,49.843 9.257,49.652 C9.408,49.462 9.484,49.202 9.484,48.873 L9.484,46.602 L10.401,46.602 ZM15.148,46.602 L15.148,50.714 L14.231,50.714 L12.272,48.138 L12.272,50.714 L11.355,50.714 L11.355,46.602 L12.213,46.602 L14.231,49.249 L14.231,46.602 L15.148,46.602 ZM19.417,54.488 L6.254,54.488 L6.254,52.449 L19.417,52.449 L19.417,54.488 ZM16.984,50.714 L16.984,47.396 L15.819,47.396 L15.819,46.602 L19.066,46.602 L19.066,47.396 L17.901,47.396 L17.901,50.714 L16.984,50.714 ZM23.338,92.323 L22.506,93.974 L18.374,91.891 L17.512,93.600 L21.229,95.473 L20.433,97.053 L16.716,95.179 L15.848,96.901 L20.110,99.050 L19.284,100.688 L13.170,97.605 L17.354,89.307 L23.338,92.323 ZM28.966,94.250 C29.567,94.435 30.064,94.667 30.456,94.945 C30.848,95.223 31.116,95.519 31.261,95.833 C31.519,96.413 31.559,96.991 31.381,97.567 C31.167,98.262 30.783,98.710 30.231,98.910 C30.041,98.982 29.912,99.023 29.844,99.035 C29.775,99.046 29.655,99.062 29.481,99.083 C29.995,99.371 30.357,99.754 30.567,100.231 C30.777,100.709 30.797,101.226 30.625,101.786 C30.434,102.404 30.054,102.886 29.484,103.229 C28.823,103.629 27.883,103.640 26.663,103.266 L22.775,102.068 L25.510,93.186 L28.966,94.250 ZM29.243,97.236 C29.364,96.842 29.322,96.544 29.115,96.341 C28.909,96.138 28.513,95.947 27.929,95.766 L26.976,95.473 L26.385,97.393 L27.325,97.682 C27.876,97.851 28.303,97.918 28.606,97.881 C28.910,97.845 29.122,97.630 29.243,97.236 ZM26.633,101.420 C27.201,101.595 27.648,101.655 27.975,101.602 C28.302,101.551 28.528,101.319 28.655,100.908 C28.781,100.497 28.715,100.181 28.454,99.956 C28.194,99.732 27.733,99.519 27.073,99.315 L25.903,98.955 L25.273,101.001 L26.633,101.420 ZM41.542,96.591 C43.196,96.694 44.441,97.178 45.275,98.043 C46.109,98.907 46.481,100.061 46.392,101.502 C46.302,102.944 45.799,104.060 44.884,104.846 C43.970,105.632 42.627,105.970 40.857,105.860 L37.686,105.662 L38.265,96.387 L41.542,96.591 ZM41.185,104.042 C42.131,104.102 42.873,103.907 43.412,103.461 C43.950,103.016 44.248,102.338 44.305,101.426 C44.361,100.515 44.151,99.798 43.673,99.275 C43.195,98.752 42.430,98.458 41.377,98.392 L40.223,98.320 L39.871,103.961 L41.185,104.042 ZM55.668,97.926 L51.065,98.396 L51.259,100.301 L55.399,99.878 L55.578,101.637 L51.439,102.060 L51.634,103.978 L56.382,103.494 L56.569,105.318 L49.757,106.014 L48.814,96.768 L55.481,96.088 L55.668,97.926 ZM60.652,94.675 C61.252,94.518 61.879,94.465 62.533,94.514 C63.188,94.563 63.787,94.719 64.332,94.979 L63.697,96.711 C62.763,96.323 61.879,96.237 61.047,96.454 C60.713,96.541 60.469,96.689 60.318,96.898 C60.167,97.108 60.125,97.343 60.193,97.604 C60.261,97.866 60.434,98.043 60.710,98.137 C60.985,98.228 61.578,98.269 62.486,98.257 C63.395,98.244 64.139,98.387 64.721,98.683 C65.302,98.981 65.698,99.533 65.908,100.339 C66.118,101.144 65.986,101.878 65.513,102.537 C65.039,103.197 64.309,103.655 63.323,103.913 C61.899,104.284 60.479,104.092 59.064,103.334 L59.877,101.554 C61.067,102.151 62.075,102.342 62.898,102.127 C63.267,102.031 63.536,101.877 63.705,101.662 C63.874,101.449 63.922,101.207 63.852,100.937 C63.781,100.667 63.614,100.482 63.350,100.381 C63.085,100.281 62.602,100.235 61.899,100.244 C60.787,100.268 59.938,100.144 59.349,99.872 C58.760,99.599 58.355,99.037 58.132,98.183 C57.910,97.330 58.044,96.592 58.536,95.969 C59.029,95.346 59.734,94.914 60.652,94.675 ZM71.436,101.084 L69.506,101.843 L66.110,93.191 L68.041,92.434 L71.436,101.084 ZM74.096,89.216 C75.259,88.562 76.484,88.378 77.772,88.661 L77.595,90.545 C77.053,90.432 76.596,90.401 76.224,90.453 C75.852,90.505 75.487,90.630 75.132,90.830 C74.444,91.217 73.996,91.775 73.787,92.508 C73.578,93.240 73.689,93.989 74.118,94.754 C74.548,95.519 75.118,96.005 75.829,96.211 C76.539,96.416 77.208,96.344 77.833,95.992 C78.459,95.640 78.913,95.228 79.196,94.754 L77.946,92.528 L79.766,91.506 L81.381,94.381 C81.080,95.728 80.219,96.802 78.798,97.600 C77.607,98.268 76.387,98.435 75.137,98.101 C73.887,97.766 72.924,96.998 72.249,95.797 C71.574,94.596 71.422,93.361 71.794,92.095 C72.165,90.829 72.933,89.869 74.096,89.216 ZM74.842,46.602 L74.842,48.902 C74.842,49.498 74.677,49.957 74.348,50.275 C74.018,50.596 73.596,50.755 73.082,50.755 C72.568,50.755 72.147,50.594 71.815,50.273 C71.484,49.952 71.318,49.494 71.318,48.902 L71.318,46.602 L72.235,46.602 L72.235,48.873 C72.235,49.202 72.312,49.462 72.465,49.652 C72.618,49.843 72.824,49.937 73.082,49.937 C73.342,49.937 73.546,49.843 73.697,49.652 C73.849,49.462 73.924,49.202 73.924,48.873 L73.924,46.602 L74.842,46.602 ZM79.589,46.602 L79.589,50.714 L78.670,50.714 L76.712,48.138 L76.712,50.714 L75.794,50.714 L75.794,46.602 L76.653,46.602 L78.670,49.249 L78.670,46.602 L79.589,46.602 ZM83.857,54.488 L70.694,54.488 L70.694,52.449 L83.857,52.449 L83.857,54.488 ZM81.424,50.714 L81.424,47.396 L80.259,47.396 L80.259,46.602 L83.506,46.602 L83.506,47.396 L82.341,47.396 L82.341,50.714 L81.424,50.714 ZM80.872,84.922 L88.253,86.375 L84.285,81.896 L85.838,80.520 L92.001,87.476 L90.448,88.853 L83.273,87.430 L87.135,91.789 L85.583,93.164 L79.419,86.208 L80.872,84.922 Z"/>
</svg>